<?xml version="1.0" encoding="UTF-8"?>
<!--Generator: Apple Native CoreSVG 175.5-->
<!DOCTYPE svg
PUBLIC "-//W3C//DTD SVG 1.1//EN"
       "http://www.w3.org/Graphics/SVG/1.1/DTD/svg11.dtd">
<svg version="1.1" xmlns="http://www.w3.org/2000/svg" xmlns:xlink="http://www.w3.org/1999/xlink" width="3300" height="2200">
 <!--glyph: "uni100EF5.medium", point size: 100.0, font version: "18.0d12e2", template writer version: "101"-->
 <g id="Notes">
  <rect height="2200" id="artboard" style="fill:white;opacity:1" width="3300" x="0" y="0"/>
  <line style="fill:none;stroke:black;opacity:1;stroke-width:0.5;" x1="263" x2="3036" y1="292" y2="292"/>
  <text style="stroke:none;fill:black;font-family:sans-serif;font-size:13;font-weight:bold;" transform="matrix(1 0 0 1 263 322)">Weight/Scale Variations</text>
  <text style="stroke:none;fill:black;font-family:sans-serif;font-size:13;text-anchor:middle;" transform="matrix(1 0 0 1 559.711 322)">Ultralight</text>
  <text style="stroke:none;fill:black;font-family:sans-serif;font-size:13;text-anchor:middle;" transform="matrix(1 0 0 1 856.422 322)">Thin</text>
  <text style="stroke:none;fill:black;font-family:sans-serif;font-size:13;text-anchor:middle;" transform="matrix(1 0 0 1 1153.13 322)">Light</text>
  <text style="stroke:none;fill:black;font-family:sans-serif;font-size:13;text-anchor:middle;" transform="matrix(1 0 0 1 1449.84 322)">Regular</text>
  <text style="stroke:none;fill:black;font-family:sans-serif;font-size:13;text-anchor:middle;" transform="matrix(1 0 0 1 1746.56 322)">Medium</text>
  <text style="stroke:none;fill:black;font-family:sans-serif;font-size:13;text-anchor:middle;" transform="matrix(1 0 0 1 2043.27 322)">Semibold</text>
  <text style="stroke:none;fill:black;font-family:sans-serif;font-size:13;text-anchor:middle;" transform="matrix(1 0 0 1 2339.98 322)">Bold</text>
  <text style="stroke:none;fill:black;font-family:sans-serif;font-size:13;text-anchor:middle;" transform="matrix(1 0 0 1 2636.69 322)">Heavy</text>
  <text style="stroke:none;fill:black;font-family:sans-serif;font-size:13;text-anchor:middle;" transform="matrix(1 0 0 1 2933.4 322)">Black</text>
  <line style="fill:none;stroke:black;opacity:1;stroke-width:0.5;" x1="263" x2="3036" y1="1903" y2="1903"/>
  <g transform="matrix(1 0 0 1 263 1933)">
   <path d="M9.24805 0.830078C13.5547 0.830078 17.1387-2.74414 17.1387-7.05078C17.1387-11.3574 13.5449-14.9316 9.23828-14.9316C4.94141-14.9316 1.36719-11.3574 1.36719-7.05078C1.36719-2.74414 4.95117 0.830078 9.24805 0.830078ZM9.24805-0.654297C5.70312-0.654297 2.87109-3.49609 2.87109-7.05078C2.87109-10.6055 5.69336-13.4473 9.23828-13.4473C12.793-13.4473 15.6445-10.6055 15.6445-7.05078C15.6445-3.49609 12.8027-0.654297 9.24805-0.654297ZM5.6543-7.05078C5.6543-6.62109 5.95703-6.32812 6.40625-6.32812L8.50586-6.32812L8.50586-4.20898C8.50586-3.76953 8.79883-3.4668 9.22852-3.4668C9.67773-3.4668 9.9707-3.76953 9.9707-4.20898L9.9707-6.32812L12.0898-6.32812C12.5293-6.32812 12.832-6.62109 12.832-7.05078C12.832-7.49023 12.5293-7.79297 12.0898-7.79297L9.9707-7.79297L9.9707-9.90234C9.9707-10.3516 9.67773-10.6543 9.22852-10.6543C8.79883-10.6543 8.50586-10.3516 8.50586-9.90234L8.50586-7.79297L6.40625-7.79297C5.95703-7.79297 5.6543-7.49023 5.6543-7.05078Z"/>
  </g>
  <g transform="matrix(1 0 0 1 281.867 1933)">
   <path d="M11.709 2.91016C17.1582 2.91016 21.6699-1.61133 21.6699-7.05078C21.6699-12.5 17.1484-17.0117 11.6992-17.0117C6.25977-17.0117 1.74805-12.5 1.74805-7.05078C1.74805-1.61133 6.26953 2.91016 11.709 2.91016ZM11.709 1.25C7.09961 1.25 3.41797-2.44141 3.41797-7.05078C3.41797-11.6602 7.08984-15.3516 11.6992-15.3516C16.3086-15.3516 20.0098-11.6602 20.0098-7.05078C20.0098-2.44141 16.3184 1.25 11.709 1.25ZM7.17773-7.05078C7.17773-6.57227 7.50977-6.25 8.00781-6.25L10.8789-6.25L10.8789-3.36914C10.8789-2.88086 11.2109-2.53906 11.6895-2.53906C12.1777-2.53906 12.5195-2.87109 12.5195-3.36914L12.5195-6.25L15.4004-6.25C15.8887-6.25 16.2305-6.57227 16.2305-7.05078C16.2305-7.53906 15.8887-7.88086 15.4004-7.88086L12.5195-7.88086L12.5195-10.752C12.5195-11.25 12.1777-11.5918 11.6895-11.5918C11.2109-11.5918 10.8789-11.25 10.8789-10.752L10.8789-7.88086L8.00781-7.88086C7.50977-7.88086 7.17773-7.53906 7.17773-7.05078Z"/>
  </g>
  <g transform="matrix(1 0 0 1 305.646 1933)">
   <path d="M14.9707 5.66406C21.9336 5.66406 27.6953-0.0976562 27.6953-7.05078C27.6953-14.0137 21.9238-19.7754 14.9609-19.7754C8.00781-19.7754 2.25586-14.0137 2.25586-7.05078C2.25586-0.0976562 8.01758 5.66406 14.9707 5.66406ZM14.9707 3.84766C8.93555 3.84766 4.08203-1.01562 4.08203-7.05078C4.08203-13.0957 8.92578-17.9492 14.9609-17.9492C21.0059-17.9492 25.8691-13.0957 25.8691-7.05078C25.8691-1.01562 21.0156 3.84766 14.9707 3.84766ZM9.19922-7.05078C9.19922-6.5332 9.57031-6.17188 10.1172-6.17188L14.0625-6.17188L14.0625-2.2168C14.0625-1.67969 14.4336-1.29883 14.9512-1.29883C15.4883-1.29883 15.8594-1.66992 15.8594-2.2168L15.8594-6.17188L19.8145-6.17188C20.3516-6.17188 20.7324-6.5332 20.7324-7.05078C20.7324-7.59766 20.3613-7.96875 19.8145-7.96875L15.8594-7.96875L15.8594-11.9141C15.8594-12.4609 15.4883-12.8418 14.9512-12.8418C14.4336-12.8418 14.0625-12.4609 14.0625-11.9141L14.0625-7.96875L10.1172-7.96875C9.57031-7.96875 9.19922-7.59766 9.19922-7.05078Z"/>
  </g>
  <text style="stroke:none;fill:black;font-family:sans-serif;font-size:13;font-weight:bold;" transform="matrix(1 0 0 1 263 1953)">Design Variations</text>
  <text style="stroke:none;fill:black;font-family:sans-serif;font-size:13;" transform="matrix(1 0 0 1 263 1971)">Symbols are supported in up to nine weights and three scales.</text>
  <text style="stroke:none;fill:black;font-family:sans-serif;font-size:13;" transform="matrix(1 0 0 1 263 1989)">For optimal layout with text and other symbols, vertically align</text>
  <text style="stroke:none;fill:black;font-family:sans-serif;font-size:13;" transform="matrix(1 0 0 1 263 2007)">symbols with the adjacent text.</text>
  <line style="fill:none;stroke:#00AEEF;stroke-width:0.5;opacity:1.0;" x1="776" x2="776" y1="1919" y2="1933"/>
  <g transform="matrix(1 0 0 1 776 1933)">
   <path d="M3.31055 0.15625C3.82812 0.15625 4.08203-0.0390625 4.26758-0.585938L5.52734-4.0332L11.2891-4.0332L12.5488-0.585938C12.7344-0.0390625 12.9883 0.15625 13.4961 0.15625C14.0137 0.15625 14.3457-0.15625 14.3457-0.644531C14.3457-0.810547 14.3164-0.966797 14.2383-1.17188L9.6582-13.3691C9.43359-13.9648 9.0332-14.2676 8.4082-14.2676C7.80273-14.2676 7.39258-13.9746 7.17773-13.3789L2.59766-1.16211C2.51953-0.957031 2.49023-0.800781 2.49023-0.634766C2.49023-0.146484 2.80273 0.15625 3.31055 0.15625ZM6.00586-5.51758L8.37891-12.0898L8.42773-12.0898L10.8008-5.51758Z"/>
  </g>
  <line style="fill:none;stroke:#00AEEF;stroke-width:0.5;opacity:1.0;" x1="793.197" x2="793.197" y1="1919" y2="1933"/>
  <text style="stroke:none;fill:black;font-family:sans-serif;font-size:13;font-weight:bold;" transform="matrix(1 0 0 1 776 1953)">Margins</text>
  <text style="stroke:none;fill:black;font-family:sans-serif;font-size:13;" transform="matrix(1 0 0 1 776 1971)">Leading and trailing margins on the left and right side of each symbol</text>
  <text style="stroke:none;fill:black;font-family:sans-serif;font-size:13;" transform="matrix(1 0 0 1 776 1989)">can be adjusted by modifying the x-location of the margin guidelines.</text>
  <text style="stroke:none;fill:black;font-family:sans-serif;font-size:13;" transform="matrix(1 0 0 1 776 2007)">Modifications are automatically applied proportionally to all</text>
  <text style="stroke:none;fill:black;font-family:sans-serif;font-size:13;" transform="matrix(1 0 0 1 776 2025)">scales and weights.</text>
  <g transform="matrix(1 0 0 1 1289 1933)">
   <path d="M2.8418 1.86523L4.54102 3.57422C5.40039 4.44336 6.38672 4.38477 7.31445 3.35938L18.0078-8.42773L17.041-9.4043L6.42578 2.27539C6.07422 2.67578 5.74219 2.77344 5.27344 2.30469L4.10156 1.14258C3.63281 0.683594 3.74023 0.341797 4.14062-0.0195312L15.6152-10.8203L14.6387-11.7871L3.04688-0.898438C2.06055 0.0195312 1.98242 0.996094 2.8418 1.86523ZM9.25781-16.3281C8.83789-15.918 8.80859-15.3418 9.04297-14.9512C9.27734-14.5898 9.73633-14.3555 10.3809-14.5215C11.8457-14.8633 13.3691-14.9219 14.7949-13.9844L14.209-12.5293C13.8672-11.6992 14.043-11.1133 14.5801-10.5664L16.875-8.25195C17.3633-7.76367 17.7734-7.74414 18.3398-7.8418L19.4043-8.03711L20.0684-7.36328L20.0293-6.80664C19.9902-6.30859 20.1172-5.92773 20.6055-5.44922L21.3672-4.70703C21.8457-4.22852 22.4609-4.19922 22.9297-4.66797L25.8398-7.58789C26.3086-8.05664 26.2891-8.65234 25.8105-9.13086L25.0391-9.89258C24.5605-10.3711 24.1895-10.5273 23.7109-10.4883L23.1348-10.4395L22.4902-11.0742L22.7344-12.1973C22.8613-12.7637 22.7051-13.2031 22.1191-13.7891L19.9219-15.9766C16.582-19.2969 12.1484-19.2188 9.25781-16.3281ZM10.752-15.957C13.1836-17.7344 16.4746-17.4316 18.7012-15.2051L21.1328-12.793C21.3672-12.5586 21.4062-12.373 21.3379-12.0312L21.0156-10.5469L22.5195-9.0625L23.5059-9.12109C23.7598-9.13086 23.8379-9.11133 24.0332-8.91602L24.6094-8.33984L22.168-5.89844L21.5918-6.47461C21.3965-6.66992 21.3672-6.74805 21.377-7.01172L21.4453-7.98828L19.9512-9.47266L18.4277-9.21875C18.1055-9.15039 17.959-9.17969 17.7148-9.41406L15.7129-11.416C15.459-11.6504 15.4297-11.8164 15.5859-12.1875L16.4648-14.2773C14.9023-15.7324 12.8711-16.3574 10.8398-15.7617C10.6836-15.7227 10.625-15.8496 10.752-15.957Z"/>
  </g>
  <text style="stroke:none;fill:black;font-family:sans-serif;font-size:13;font-weight:bold;" transform="matrix(1 0 0 1 1289 1953)">Exporting</text>
  <text style="stroke:none;fill:black;font-family:sans-serif;font-size:13;" transform="matrix(1 0 0 1 1289 1971)">Symbols should be outlined when exporting to ensure the</text>
  <text style="stroke:none;fill:black;font-family:sans-serif;font-size:13;" transform="matrix(1 0 0 1 1289 1989)">design is preserved when submitting to Xcode.</text>
  <text id="template-version" style="stroke:none;fill:black;font-family:sans-serif;font-size:13;text-anchor:end;" transform="matrix(1 0 0 1 3036 1933)">Template v.2.0</text>
  <text style="stroke:none;fill:black;font-family:sans-serif;font-size:13;text-anchor:end;" transform="matrix(1 0 0 1 3036 1951)">Requires Xcode 12 or greater</text>
  <text id="descriptive-name" style="stroke:none;fill:black;font-family:sans-serif;font-size:13;text-anchor:end;" transform="matrix(1 0 0 1 3036 1969)">Generated from rectangle.portrait.and.arrow.right</text>
  <text style="stroke:none;fill:black;font-family:sans-serif;font-size:13;text-anchor:end;" transform="matrix(1 0 0 1 3036 1987)">Typeset at 100 points</text>
  <text style="stroke:none;fill:black;font-family:sans-serif;font-size:13;" transform="matrix(1 0 0 1 263 726)">Small</text>
  <text style="stroke:none;fill:black;font-family:sans-serif;font-size:13;" transform="matrix(1 0 0 1 263 1156)">Medium</text>
  <text style="stroke:none;fill:black;font-family:sans-serif;font-size:13;" transform="matrix(1 0 0 1 263 1586)">Large</text>
 </g>
 <g id="Guides">
  <g id="H-reference" style="fill:#27AAE1;stroke:none;" transform="matrix(1 0 0 1 339 696)">
   <path d="M0.993654 0L3.63775 0L29.3281-67.1323L30.0303-67.1323L30.0303-70.459L28.1226-70.459ZM11.6885-24.4799L46.9815-24.4799L46.2315-26.7285L12.4385-26.7285ZM55.1196 0L57.7637 0L30.6382-70.459L29.4326-70.459L29.4326-67.1323Z"/>
  </g>
  <line id="Baseline-S" style="fill:none;stroke:#27AAE1;opacity:1;stroke-width:0.5;" x1="263" x2="3036" y1="696" y2="696"/>
  <line id="Capline-S" style="fill:none;stroke:#27AAE1;opacity:1;stroke-width:0.5;" x1="263" x2="3036" y1="625.541" y2="625.541"/>
  <g id="H-reference" style="fill:#27AAE1;stroke:none;" transform="matrix(1 0 0 1 339 1126)">
   <path d="M0.993654 0L3.63775 0L29.3281-67.1323L30.0303-67.1323L30.0303-70.459L28.1226-70.459ZM11.6885-24.4799L46.9815-24.4799L46.2315-26.7285L12.4385-26.7285ZM55.1196 0L57.7637 0L30.6382-70.459L29.4326-70.459L29.4326-67.1323Z"/>
  </g>
  <line id="Baseline-M" style="fill:none;stroke:#27AAE1;opacity:1;stroke-width:0.5;" x1="263" x2="3036" y1="1126" y2="1126"/>
  <line id="Capline-M" style="fill:none;stroke:#27AAE1;opacity:1;stroke-width:0.5;" x1="263" x2="3036" y1="1055.54" y2="1055.54"/>
  <g id="H-reference" style="fill:#27AAE1;stroke:none;" transform="matrix(1 0 0 1 339 1556)">
   <path d="M0.993654 0L3.63775 0L29.3281-67.1323L30.0303-67.1323L30.0303-70.459L28.1226-70.459ZM11.6885-24.4799L46.9815-24.4799L46.2315-26.7285L12.4385-26.7285ZM55.1196 0L57.7637 0L30.6382-70.459L29.4326-70.459L29.4326-67.1323Z"/>
  </g>
  <line id="Baseline-L" style="fill:none;stroke:#27AAE1;opacity:1;stroke-width:0.5;" x1="263" x2="3036" y1="1556" y2="1556"/>
  <line id="Capline-L" style="fill:none;stroke:#27AAE1;opacity:1;stroke-width:0.5;" x1="263" x2="3036" y1="1485.54" y2="1485.54"/>
  <line id="left-margin" style="fill:none;stroke:#00AEEF;stroke-width:0.5;opacity:1.0;" x1="1380.73" x2="1380.73" y1="1030.79" y2="1150.12"/>
  <line id="right-margin" style="fill:none;stroke:#00AEEF;stroke-width:0.5;opacity:1.0;" x1="1518.96" x2="1518.96" y1="1030.79" y2="1150.12"/>
 </g>
 <g id="Symbols">
  <g id="Black-L" transform="matrix(1 0 0 1 2837.45 1556)">
   <path d="M39.7724 35.1919L107.573 35.1919C122.676 35.1919 131.282 26.5843 131.282 11.4202L131.282-13.9763L111.282-13.9763L111.282 8.68947C111.282 13.0054 109.35 15.2108 104.738 15.2108L42.628 15.2108C37.9952 15.2108 36.065 13.0054 36.065 8.68947L36.065-79.1073C36.065-83.4232 37.9952-85.6286 42.628-85.6286L104.738-85.6286C109.35-85.6286 111.282-83.4232 111.282-79.1073L111.282-56.0934L131.282-56.0934L131.282-81.838C131.282-96.9813 122.676-105.61 107.573-105.61L39.7724-105.61C24.6707-105.61 16.084-96.9813 16.084-81.838L16.084 11.4202C16.084 26.5843 24.6707 35.1919 39.7724 35.1919ZM86.703-26.585L145.883-26.585L155.03-27.3535L149.995-24.6986L143.178-18.3017C141.634-16.879 140.747-14.9201 140.747-12.7288C140.747-8.97026 143.634-5.33948 147.841-5.33948C149.995-5.33948 151.537-6.15088 152.981-7.59442L172.73-28.2142C174.979-30.5211 175.807-32.9032 175.807-35.2697C175.807-37.6362 174.979-40.0183 172.73-42.3252L152.981-62.9462C151.537-64.4105 149.995-65.2011 147.841-65.2011C143.634-65.2011 140.747-61.5924 140.747-57.8326C140.747-55.6413 141.634-53.6617 143.178-52.2389L149.995-45.842L155.052-43.1859L145.883-43.9544L86.703-43.9544C82.1244-43.9544 78.1183-40.1612 78.1183-35.2697C78.1183-30.3782 82.1244-26.585 86.703-26.585Z"/>
  </g>
  <g id="Heavy-L" transform="matrix(1 0 0 1 2542.44 1556)">
   <path d="M38.7107 34.4871L106.333 34.4871C120.891 34.4871 128.99 26.3825 128.99 11.7397L128.99-14.6358L111.465-14.6358L111.465 9.61542C111.465 14.4531 109.165 16.9867 104.058 16.9867L41.0161 16.9867C35.8791 16.9867 33.5844 14.4531 33.5844 9.61542L33.5844-80.0431C33.5844-84.8809 35.8791-87.4144 41.0161-87.4144L104.058-87.4144C109.165-87.4144 111.465-84.8809 111.465-80.0431L111.465-55.5354L128.99-55.5354L128.99-82.1674C128.99-96.78 120.891-104.915 106.333-104.915L38.7107-104.915C24.1584-104.915 16.084-96.78 16.084-82.1674L16.084 11.7397C16.084 26.3825 24.1584 34.4871 38.7107 34.4871ZM83.5848-27.5314L144.284-27.5314L153.474-28.209L148.486-25.0778L140.823-17.8586C139.41-16.5814 138.632-14.7996 138.632-12.8449C138.632-9.40747 141.247-6.19141 145.022-6.19141C146.963-6.19141 148.369-6.93496 149.677-8.24226L169.693-29.0756C171.686-31.114 172.414-33.1811 172.414-35.2697C172.414-37.3583 171.686-39.4254 169.693-41.4638L149.677-62.3028C148.369-63.6402 146.963-64.3536 145.022-64.3536C141.247-64.3536 138.632-61.1733 138.632-57.7303C138.632-55.7756 139.41-53.9636 140.823-52.6865L148.486-45.4672L153.51-42.3305L144.284-43.008L83.5848-43.008C79.5114-43.008 75.9515-39.5964 75.9515-35.2697C75.9515-30.943 79.5114-27.5314 83.5848-27.5314Z"/>
  </g>
  <g id="Bold-L" transform="matrix(1 0 0 1 2247.82 1556)">
   <path d="M37.3893 33.656L104.864 33.656C118.716 33.656 126.207 26.1514 126.207 12.1987L126.207-15.4057L111.74-15.4057L111.74 10.7529C111.74 16.2734 108.979 19.2142 103.228 19.2142L39.063 19.2142C33.2738 19.2142 30.5257 16.2734 30.5257 10.7529L30.5257-81.181C30.5257-86.7015 33.2738-89.6423 39.063-89.6423L103.228-89.6423C108.979-89.6423 111.74-86.7015 111.74-81.181L111.74-54.8736L126.207-54.8736L126.207-82.6268C126.207-96.5415 118.716-104.084 104.864-104.084L37.3893-104.084C23.5506-104.084 16.084-96.5415 16.084-82.6268L16.084 12.1987C16.084 26.1514 23.5506 33.656 37.3893 33.656ZM79.7273-28.7293L142.503-28.7293L151.709-29.2917L146.612-25.4646L137.888-17.1862C136.652-16.0934 136.005-14.5418 136.005-12.8865C136.005-9.88584 138.266-7.18457 141.489-7.18457C143.153-7.18457 144.376-7.83616 145.507-8.96697L165.957-30.1437C167.629-31.8441 168.233-33.5269 168.233-35.2697C168.233-37.0125 167.629-38.6953 165.957-40.3957L145.507-61.5857C144.376-62.7545 143.153-63.3681 141.489-63.3681C138.266-63.3681 136.005-60.718 136.005-57.7041C136.005-56.0489 136.652-54.4593 137.888-53.3664L146.612-45.088L151.761-41.2477L142.503-41.8101L79.7273-41.8101C76.2913-41.8101 73.2921-38.8897 73.2921-35.2697C73.2921-31.6497 76.2913-28.7293 79.7273-28.7293Z"/>
  </g>
  <g id="Semibold-L" transform="matrix(1 0 0 1 1952.55 1556)">
   <path d="M36.4783 33.083L103.85 33.083C117.216 33.083 124.288 25.9921 124.288 12.5152L124.288-15.9364L111.93-15.9364L111.93 11.5371C111.93 17.5283 108.851 20.7498 102.656 20.7498L37.7165 20.7498C31.4776 20.7498 28.4171 17.5283 28.4171 11.5371L28.4171-81.9655C28.4171-87.9566 31.4776-91.1782 37.7165-91.1782L102.656-91.1782C108.851-91.1782 111.93-87.9566 111.93-81.9655L111.93-54.4174L124.288-54.4174L124.288-82.9435C124.288-96.377 117.216-103.511 103.85-103.511L36.4783-103.511C23.1315-103.511 16.084-96.377 16.084-82.9435L16.084 12.5152C16.084 25.9921 23.1315 33.083 36.4783 33.083ZM77.068-29.5551L141.275-29.5551L150.493-30.0381L145.319-25.7313L135.865-16.7227C134.75-15.7569 134.193-14.364 134.193-12.9152C134.193-10.2156 136.211-7.86925 139.053-7.86925C140.527-7.86925 141.623-8.45744 142.632-9.46658L163.382-30.88C164.831-32.3474 165.351-33.7652 165.351-35.2697C165.351-36.7742 164.831-38.192 163.382-39.6594L142.632-61.0913C141.623-62.1438 140.527-62.6886 139.053-62.6886C136.211-62.6886 134.193-60.4041 134.193-57.686C134.193-56.2373 134.75-54.801 135.865-53.8352L145.319-44.8266L150.555-40.5013L141.275-40.9843L77.068-40.9843C74.0714-40.9843 71.4587-38.4025 71.4587-35.2697C71.4587-32.1369 74.0714-29.5551 77.068-29.5551Z"/>
  </g>
  <g id="Medium-L" transform="matrix(1 0 0 1 1656.93 1556)">
   <path d="M35.7875 32.6485L103.082 32.6485C116.078 32.6485 122.833 25.8713 122.833 12.7552L122.833-16.3388L112.074-16.3388L112.074 12.1317C112.074 18.4798 108.754 21.9142 102.222 21.9142L36.6956 21.9142C30.1158 21.9142 26.8183 18.4798 26.8183 12.1317L26.8183-82.5603C26.8183-88.9083 30.1158-92.3427 36.6956-92.3427L102.222-92.3427C108.754-92.3427 112.074-88.9083 112.074-82.5603L112.074-54.0715L122.833-54.0715L122.833-83.1837C122.833-96.2524 116.078-103.077 103.082-103.077L35.7875-103.077C22.8138-103.077 16.084-96.2524 16.084-83.1837L16.084 12.7552C16.084 25.8713 22.8138 32.6485 35.7875 32.6485ZM75.0516-30.1813L140.343-30.1813L149.57-30.6041L144.339-25.9334L134.331-16.3712C133.308-15.5018 132.82-14.2292 132.82-12.937C132.82-10.4657 134.653-8.3884 137.206-8.3884C138.535-8.3884 139.535-8.92852 140.452-9.84541L161.43-31.4383C162.71-32.729 163.166-33.946 163.166-35.2697C163.166-36.5935 162.71-37.8104 161.43-39.1011L140.452-60.7165C139.535-61.6808 138.535-62.1735 137.206-62.1735C134.653-62.1735 132.82-60.1661 132.82-57.6723C132.82-56.3801 133.308-55.0601 134.331-54.1906L144.339-44.6284L149.64-39.9353L140.343-40.3581L75.0516-40.3581C72.3882-40.3581 70.0686-38.0331 70.0686-35.2697C70.0686-32.5063 72.3882-30.1813 75.0516-30.1813Z"/>
  </g>
  <g id="Regular-L" transform="matrix(1 0 0 1 1361.65 1556)">
   <path d="M34.8866 32.0818L102.08 32.0818C114.595 32.0818 120.935 25.7137 120.935 13.0682L120.935-16.8637L112.262-16.8637L112.262 12.9073C112.262 19.7209 108.627 23.4329 101.655 23.4329L35.364 23.4329C28.3394 23.4329 24.7328 19.7209 24.7328 12.9073L24.7328-83.3361C24.7328-90.1496 28.3394-93.8617 35.364-93.8617L101.655-93.8617C108.627-93.8617 112.262-90.1496 112.262-83.3361L112.262-53.6204L120.935-53.6204L120.935-83.4969C120.935-96.0897 114.595-102.511 102.08-102.511L34.8866-102.511C22.3993-102.511 16.084-96.0897 16.084-83.4969L16.084 13.0682C16.084 25.7137 22.3993 32.0818 34.8866 32.0818ZM72.4215-30.998L139.129-30.998L148.367-31.3423L143.061-26.1972L132.33-15.9128C131.428-15.169 131.028-14.0534 131.028-12.9653C131.028-10.7918 132.621-9.06556 134.797-9.06556C135.938-9.06556 136.812-9.54298 137.609-10.3395L158.883-32.1665C159.943-33.2268 160.315-34.1817 160.315-35.2697C160.315-36.3577 159.943-37.3126 158.883-38.3729L137.609-60.2275C136.812-61.0768 135.938-61.5015 134.797-61.5015C132.621-61.5015 131.028-59.8556 131.028-57.6545C131.028-56.5665 131.428-55.398 132.33-54.6542L143.061-44.3699L148.448-39.1971L139.129-39.5414L72.4215-39.5414C70.1927-39.5414 68.2553-37.5513 68.2553-35.2697C68.2553-32.9881 70.1927-30.998 72.4215-30.998Z"/>
  </g>
  <g id="Light-L" transform="matrix(1 0 0 1 1066.31 1556)">
   <path d="M33.9323 31.7764L101.488 31.7764C113.316 31.7764 119.37 25.6755 119.37 13.7934L119.37-17.0928L112.758-17.0928L112.758 13.6326C112.758 21.1523 108.78 25.1506 101.159 25.1506L34.2952 25.1506C26.6408 25.1506 22.7098 21.1523 22.7098 13.6326L22.7098-83.985C22.7098-91.5047 26.6408-95.503 34.2952-95.503L101.159-95.503C108.78-95.503 112.758-91.5047 112.758-83.985L112.758-53.3532L119.37-53.3532L119.37-84.1458C119.37-95.9943 113.316-102.129 101.488-102.129L33.9323-102.129C22.1512-102.129 16.084-95.9943 16.084-84.1458L16.084 13.7934C16.084 25.6755 22.1512 31.7764 33.9323 31.7764ZM69.7877-31.9905L139.186-31.9905L148.195-32.2393L141.725-25.93L130.192-14.6532C129.5-14.0621 129.158-13.1754 129.158-12.3355C129.158-10.7155 130.407-9.35184 132.087-9.35184C132.961-9.35184 133.606-9.71474 134.231-10.3395L156.478-32.9108C157.272-33.704 157.567-34.4298 157.567-35.2697C157.567-36.1096 157.272-36.8354 156.478-37.6286L134.231-60.2466C133.606-60.9051 132.961-61.2343 132.087-61.2343C130.407-61.2343 129.158-59.9511 129.158-58.2843C129.158-57.4444 129.5-56.5241 130.192-55.933L141.725-44.6562L148.276-38.3001L139.186-38.5489L69.7877-38.5489C68.0742-38.5489 66.5758-37.0169 66.5758-35.2697C66.5758-33.5225 68.0742-31.9905 69.7877-31.9905Z"/>
  </g>
  <g id="Thin-L" transform="matrix(1 0 0 1 771.417 1556)">
   <path d="M32.6702 31.3726L100.706 31.3726C111.625 31.3726 117.301 25.6251 117.301 14.7526L117.301-17.3957L113.414-17.3957L113.414 14.5918C113.414 23.0454 108.982 27.4224 100.503 27.4224L32.8817 27.4224C24.3943 27.4224 20.0342 23.0454 20.0342 14.5918L20.0342-84.8432C20.0342-93.2969 24.3943-97.6738 32.8817-97.6738L100.503-97.6738C108.982-97.6738 113.414-93.2969 113.414-84.8432L113.414-52.9998L117.301-52.9998L117.301-85.0041C117.301-95.8681 111.625-101.624 100.706-101.624L32.6702-101.624C21.823-101.624 16.084-95.8681 16.084-85.0041L16.084 14.7526C16.084 25.6251 21.823 31.3726 32.6702 31.3726ZM66.3043-33.303L139.262-33.303L147.968-33.4256L139.958-25.5766L127.365-12.9872C126.95-12.5981 126.684-12.0143 126.684-11.5025C126.684-10.6145 127.479-9.73046 128.503-9.73046C129.023-9.73046 129.365-9.94192 129.763-10.3395L153.298-33.8952C153.738-34.335 153.932-34.7579 153.932-35.2697C153.932-35.7815 153.738-36.2044 153.298-36.6442L129.763-60.2719C129.365-60.6779 129.023-60.8809 128.503-60.8809C127.479-60.8809 126.684-60.0773 126.684-59.1173C126.684-58.6055 126.95-58.0133 127.365-57.6242L139.958-45.0348L148.049-37.1138L139.262-37.2364L66.3043-37.2364C65.2724-37.2364 64.3545-36.3101 64.3545-35.2697C64.3545-34.2293 65.2724-33.303 66.3043-33.303Z"/>
  </g>
  <g id="Ultralight-L" transform="matrix(1 0 0 1 475.638 1556)">
   <path d="M32.0238 31.1657L100.305 31.1657C110.759 31.1657 116.24 25.5992 116.24 15.2439L116.24-17.5508L113.75-17.5508L113.75 15.083C113.75 24.015 109.085 28.5859 100.167 28.5859L32.1576 28.5859C23.2436 28.5859 18.6637 24.015 18.6637 15.083L18.6637-85.2828C18.6637-94.2148 23.2436-98.7857 32.1576-98.7857L100.167-98.7857C109.085-98.7857 113.75-94.2148 113.75-85.2828L113.75-52.8188L116.24-52.8188L116.24-85.4436C116.24-95.8034 110.759-101.365 100.305-101.365L32.0238-101.365C21.655-101.365 16.084-95.8034 16.084-85.4436L16.084 15.2439C16.084 25.5992 21.655 31.1657 32.0238 31.1657ZM64.5202-33.9753L139.301-33.9753L147.852-34.0333L139.053-25.3956L125.917-12.1339C125.645-11.8482 125.417-11.4196 125.417-11.0759C125.417-10.5628 125.979-9.9244 126.667-9.9244C127.006-9.9244 127.193-10.0583 127.475-10.3395L151.669-34.3995C151.928-34.6582 152.071-34.926 152.071-35.2697C152.071-35.6134 151.928-35.8812 151.669-36.14L127.475-60.2848C127.193-60.5615 127.006-60.6999 126.667-60.6999C125.979-60.6999 125.417-60.1419 125.417-59.5439C125.417-59.2002 125.645-58.7761 125.917-58.4904L139.053-45.2287L147.932-36.5061L139.301-36.5641L64.5202-36.5641C63.8373-36.5641 63.2168-35.9481 63.2168-35.2697C63.2168-34.5913 63.8373-33.9753 64.5202-33.9753Z"/>
  </g>
  <g id="Black-M" transform="matrix(1 0 0 1 2857.8 1126)">
   <path d="M31.5964 19.8932L84.3265 19.8932C96.4026 19.8932 103.467 12.8285 103.467 0.735696L103.467-18.228L86.1238-18.228L86.1238-1.90115C86.1238 1.08981 84.898 2.55522 81.6622 2.55522L34.2662 2.55522C31.0249 2.55522 29.7989 1.08981 29.7989-1.90115L29.7989-68.5071C29.7989-71.498 31.0249-72.9634 34.2662-72.9634L81.6622-72.9634C84.898-72.9634 86.1238-71.498 86.1238-68.5071L86.1238-51.8371L103.467-51.8371L103.467-71.1439C103.467-83.2313 96.4026-90.3014 84.3265-90.3014L31.5964-90.3014C19.5201-90.3014 12.4609-83.2313 12.4609-71.1439L12.4609 0.735696C12.4609 12.8285 19.5201 19.8932 31.5964 19.8932ZM69.4954-27.8533L114.404-27.8533L121.422-28.514L117.323-26.7086L112.661-22.325C111.381-21.1183 110.606-19.4795 110.606-17.6121C110.606-14.4993 113.031-11.3791 116.594-11.3791C118.41-11.3791 119.69-12.0505 120.903-13.2627L136.106-29.1549C138.031-31.1368 138.749-33.2219 138.749-35.2606C138.749-37.2994 138.031-39.3845 136.106-41.3663L120.903-57.2583C119.69-58.476 118.41-59.142 116.594-59.142C113.031-59.142 110.606-56.0269 110.606-52.9144C110.606-51.047 111.381-49.4027 112.661-48.196L117.323-43.8124L121.427-42.0073L114.404-42.668L69.4954-42.668C65.5838-42.668 62.1562-39.4632 62.1562-35.2606C62.1562-31.0581 65.5838-27.8533 69.4954-27.8533Z"/>
  </g>
  <g id="Heavy-M" transform="matrix(1 0 0 1 2562.62 1126)">
   <path d="M30.6466 19.2324L83.1692 19.2324C94.776 19.2324 101.371 12.6348 101.371 0.981078L101.371-18.8516L86.2576-18.8516L86.2576-1.06288C86.2576 2.37302 84.7029 4.13281 81.0432 4.13281L32.7891 4.13281C29.113 4.13281 27.5605 2.37302 27.5605-1.06288L27.5605-69.3621C27.5605-72.798 29.113-74.5578 32.7891-74.5578L81.0432-74.5578C84.7029-74.5578 86.2576-72.798 86.2576-69.3621L86.2576-51.3162L101.371-51.3162L101.371-71.406C101.371-83.0433 94.776-89.6574 83.1692-89.6574L30.6466-89.6574C19.0422-89.6574 12.4609-83.0433 12.4609-71.406L12.4609 0.981078C12.4609 12.6348 19.0422 19.2324 30.6466 19.2324ZM66.6902-28.6869L112.835-28.6869L119.917-29.2675L115.971-27.104L110.555-22.008C109.384-20.9296 108.712-19.4428 108.712-17.7838C108.712-14.9337 110.901-12.1855 114.089-12.1855C115.72-12.1855 116.889-12.8011 117.984-13.896L133.359-29.9284C135.059-31.6724 135.685-33.4708 135.685-35.2606C135.685-37.0505 135.059-38.8489 133.359-40.5929L117.984-56.6276C116.889-57.7388 115.72-58.3381 114.089-58.3381C110.901-58.3381 108.712-55.6085 108.712-52.7562C108.712-51.0972 109.384-49.594 110.555-48.5156L115.971-43.4195L119.936-41.2538L112.835-41.8344L66.6902-41.8344C63.2249-41.8344 60.1929-38.9604 60.1929-35.2606C60.1929-31.5608 63.2249-28.6869 66.6902-28.6869Z"/>
  </g>
  <g id="Bold-M" transform="matrix(1 0 0 1 2267.62 1126)">
   <path d="M29.5842 18.4933L81.8747 18.4933C92.9564 18.4933 99.0265 12.418 99.0265 1.25557L99.0265-19.5491L86.4073-19.5491L86.4073-0.125156C86.4073 3.80849 84.4846 5.89757 80.3509 5.89757L31.1366 5.89757C26.9743 5.89757 25.0566 3.80849 25.0566-0.125156L25.0566-70.3185C25.0566-74.2521 26.9743-76.3412 31.1366-76.3412L80.3509-76.3412C84.4846-76.3412 86.4073-74.2521 86.4073-70.3185L86.4073-50.7335L99.0265-50.7335L99.0265-71.6992C99.0265-82.8331 92.9564-88.9369 81.8747-88.9369L29.5842-88.9369C18.5076-88.9369 12.4609-82.8331 12.4609-71.6992L12.4609 1.25557C12.4609 12.418 18.5076 18.4933 29.5842 18.4933ZM63.5521-29.6195L111.08-29.6195L118.233-30.1104L114.46-27.5463L108.2-21.6534C107.151-20.7184 106.592-19.4016 106.592-17.9758C106.592-15.4197 108.52-13.0876 111.286-13.0876C112.712-13.0876 113.756-13.6408 114.72-14.6044L130.285-30.7936C131.734-32.2714 132.259-33.7491 132.259-35.2606C132.259-36.7722 131.734-38.2498 130.285-39.7277L114.72-55.922C113.756-56.9142 112.712-57.4389 111.286-57.4389C108.52-57.4389 106.592-55.1405 106.592-52.5793C106.592-51.1534 107.151-49.808 108.2-48.873L114.46-42.9801L118.267-40.4109L111.08-40.9018L63.5521-40.9018C60.5861-40.9018 57.9967-38.398 57.9967-35.2606C57.9967-32.1233 60.5861-29.6195 63.5521-29.6195Z"/>
  </g>
  <g id="Semibold-M" transform="matrix(1 0 0 1 1972.09 1126)">
   <path d="M28.8517 17.9837L80.9823 17.9837C91.702 17.9837 97.41 12.2686 97.41 1.44481L97.41-20.03L86.5106-20.03L86.5106 0.521307C86.5106 4.79809 84.3341 7.11419 79.8735 7.11419L29.9974 7.11419C25.4999 7.11419 23.3305 4.79809 23.3305 0.521307L23.3305-70.9779C23.3305-75.2546 25.4999-77.5707 29.9974-77.5707L79.8735-77.5707C84.3341-77.5707 86.5106-75.2546 86.5106-70.9779L86.5106-50.3318L97.41-50.3318L97.41-71.9014C97.41-82.6881 91.702-88.4403 80.9823-88.4403L28.8517-88.4403C18.139-88.4403 12.4609-82.6881 12.4609-71.9014L12.4609 1.44481C12.4609 12.2686 18.139 17.9837 28.8517 17.9837ZM61.3888-30.2624L109.87-30.2624L117.072-30.6915L113.418-27.8512L106.576-21.409C105.611-20.5729 105.131-19.3733 105.131-18.1081C105.131-15.7547 106.878-13.7095 109.353-13.7095C110.637-13.7095 111.596-14.2197 112.469-15.0928L128.166-31.3901C129.442-32.6844 129.897-33.941 129.897-35.2606C129.897-36.5803 129.442-37.8368 128.166-39.1312L112.469-55.4356C111.596-56.3457 110.637-56.8189 109.353-56.8189C106.878-56.8189 105.131-54.8178 105.131-52.4573C105.131-51.1922 105.611-49.9555 106.576-49.1194L113.418-42.6772L117.116-39.8298L109.87-40.2589L61.3888-40.2589C58.7669-40.2589 56.4827-38.0103 56.4827-35.2606C56.4827-32.511 58.7669-30.2624 61.3888-30.2624Z"/>
  </g>
  <g id="Medium-M" transform="matrix(1 0 0 1 1676.27 1126)">
   <path d="M28.2963 17.5974L80.3056 17.5974C90.7509 17.5974 96.1843 12.1553 96.1843 1.5883L96.1843-20.3947L86.5888-20.3947L86.5888 1.01148C86.5888 5.54844 84.22 8.03668 79.5116 8.03668L29.1337 8.03668C24.3819 8.03668 22.0216 5.54844 22.0216 1.01148L22.0216-71.4778C22.0216-76.0148 24.3819-78.503 29.1337-78.503L79.5116-78.503C84.22-78.503 86.5888-76.0148 86.5888-71.4778L86.5888-50.0272L96.1843-50.0272L96.1843-72.0546C96.1843-82.5782 90.7509-88.0637 80.3056-88.0637L28.2963-88.0637C17.8596-88.0637 12.4609-82.5782 12.4609-72.0546L12.4609 1.5883C12.4609 12.1553 17.8596 17.5974 28.2963 17.5974ZM59.7484-30.7498L108.953-30.7498L116.192-31.132L112.627-28.0825L105.345-21.2236C104.444-20.4625 104.024-19.3518 104.024-18.2085C104.024-16.0088 105.633-14.181 107.888-14.181C109.065-14.181 109.958-14.6587 110.762-15.4632L126.559-31.8424C127.704-32.9976 128.105-34.0865 128.105-35.2606C128.105-36.4348 127.704-37.5237 126.559-38.6789L110.762-55.0667C109.958-55.9147 109.065-56.3489 107.888-56.3489C105.633-56.3489 104.024-54.5731 104.024-52.3648C104.024-51.2215 104.444-50.0673 105.345-49.3063L112.627-42.4474L116.244-39.3892L108.953-39.7715L59.7484-39.7715C57.3876-39.7715 55.3347-37.7163 55.3347-35.2606C55.3347-32.805 57.3876-30.7498 59.7484-30.7498Z"/>
  </g>
  <g id="Regular-M" transform="matrix(1 0 0 1 1380.73 1126)">
   <path d="M27.5719 17.0934L79.4229 17.0934C89.5103 17.0934 94.5856 12.0075 94.5856 1.77545L94.5856-20.8703L86.6909-20.8703L86.6909 1.65084C86.6909 6.52717 84.0711 9.23993 79.0395 9.23993L28.007 9.23993C22.9237 9.23993 20.3144 6.52717 20.3144 1.65084L20.3144-72.1299C20.3144-77.0063 22.9237-79.719 28.007-79.719L79.0395-79.719C84.0711-79.719 86.6909-77.0063 86.6909-72.1299L86.6909-49.6299L94.5856-49.6299L94.5856-72.2545C94.5856-82.4348 89.5103-87.5725 79.4229-87.5725L27.5719-87.5725C17.4951-87.5725 12.4609-82.4348 12.4609-72.2545L12.4609 1.77545C12.4609 12.0075 17.4951 17.0934 27.5719 17.0934ZM57.6088-31.3857L107.756-31.3857L115.044-31.7067L111.597-28.384L103.739-20.9819C102.921-20.3186 102.579-19.3237 102.579-18.3394C102.579-16.3401 104.009-14.7961 105.977-14.7961C107.013-14.7961 107.821-15.2312 108.536-15.9462L124.464-32.4323C125.438-33.4061 125.769-34.2763 125.769-35.2606C125.769-36.245 125.438-37.1152 124.464-38.089L108.536-54.5856C107.821-55.3524 107.013-55.7358 105.977-55.7358C104.009-55.7358 102.579-54.254 102.579-52.2442C102.579-51.2599 102.921-50.2132 103.739-49.55L111.597-42.1478L115.106-38.8146L107.756-39.1356L57.6088-39.1356C55.5884-39.1356 53.8373-37.3328 53.8373-35.2606C53.8373-33.1885 55.5884-31.3857 57.6088-31.3857Z"/>
  </g>
  <g id="Light-M" transform="matrix(1 0 0 1 1085.25 1126)">
   <path d="M26.7163 16.8196L78.8925 16.8196C88.3638 16.8196 93.1825 11.9733 93.1825 2.42567L93.1825-21.0756L87.1358-21.0756L87.1358 2.30106C87.1358 7.81049 84.208 10.7799 78.5947 10.7799L27.0488 10.7799C21.4008 10.7799 18.5006 7.81049 18.5006 2.30106L18.5006-72.7117C18.5006-78.2211 21.4008-81.1906 27.0488-81.1906L78.5947-81.1906C84.208-81.1906 87.1358-78.2211 87.1358-72.7117L87.1358-49.3904L93.1825-49.3904L93.1825-72.8363C93.1825-82.3493 88.3638-87.2303 78.8925-87.2303L26.7163-87.2303C17.2726-87.2303 12.4609-82.3493 12.4609-72.8363L12.4609 2.42567C12.4609 11.9733 17.2726 16.8196 26.7163 16.8196ZM55.2475-32.2754L107.808-32.2754L114.89-32.511L110.399-28.1445L101.823-19.8525C101.193-19.3262 100.902-18.5366 100.902-17.7748C100.902-16.2717 102.024-15.0527 103.548-15.0527C104.344-15.0527 104.947-15.3852 105.508-15.9462L122.308-33.0996C123.042-33.8338 123.305-34.4988 123.305-35.2606C123.305-36.0225 123.042-36.6875 122.308-37.4217L105.508-54.6028C104.947-55.1984 104.344-55.4962 103.548-55.4962C102.024-55.4962 100.902-54.3396 100.902-52.8088C100.902-52.047 101.193-51.2228 101.823-50.6964L110.399-42.4045L114.952-38.0103L107.808-38.2459L55.2475-38.2459C53.6891-38.2459 52.3316-36.8537 52.3316-35.2606C52.3316-33.6676 53.6891-32.2754 55.2475-32.2754Z"/>
  </g>
  <g id="Thin-M" transform="matrix(1 0 0 1 790.171 1126)">
   <path d="M25.5848 16.4575L78.1909 16.4575C86.8476 16.4575 91.3268 11.928 91.3268 3.28563L91.3268-21.3472L87.7242-21.3472L87.7242 3.16102C87.7242 9.50778 84.3891 12.8167 78.0063 12.8167L25.7815 12.8167C19.3867 12.8167 16.1018 9.50778 16.1018 3.16102L16.1018-73.4811C16.1018-79.8279 19.3867-83.1368 25.7815-83.1368L78.0063-83.1368C84.3891-83.1368 87.7242-79.8279 87.7242-73.4811L87.7242-49.0735L91.3268-49.0735L91.3268-73.6057C91.3268-82.2361 86.8476-86.7776 78.1909-86.7776L25.5848-86.7776C16.9784-86.7776 12.4609-82.2361 12.4609-73.6057L12.4609 3.28563C12.4609 11.928 16.9784 16.4575 25.5848 16.4575ZM52.1245-33.4522L107.876-33.4522L114.686-33.5746L108.815-27.8276L99.2883-18.3589C98.907-18.0136 98.684-17.4956 98.684-17.0279C98.684-16.1812 99.3987-15.3922 100.334-15.3922C100.814-15.3922 101.145-15.5889 101.502-15.9462L119.456-33.9822C119.874-34.3996 120.046-34.793 120.046-35.2606C120.046-35.7283 119.874-36.1217 119.456-36.5391L101.502-54.6254C101.145-54.9947 100.814-55.1794 100.334-55.1794C99.3987-55.1794 98.684-54.4527 98.684-53.5557C98.684-53.088 98.907-52.558 99.2883-52.2127L108.815-42.7439L114.749-36.9467L107.876-37.0691L52.1245-37.0691C51.1771-37.0691 50.3401-36.22 50.3401-35.2606C50.3401-34.3013 51.1771-33.4522 52.1245-33.4522Z"/>
  </g>
  <g id="Ultralight-M" transform="matrix(1 0 0 1 494.295 1126)">
   <path d="M25.0052 16.2721L77.8316 16.2721C86.071 16.2721 90.3763 11.9048 90.3763 3.7261L90.3763-21.4863L88.0256-21.4863L88.0256 3.60149C88.0256 10.3771 84.4818 13.8599 77.7049 13.8599L25.1324 13.8599C18.355 13.8599 14.8731 10.3771 14.8731 3.60149L14.8731-73.8752C14.8731-80.6509 18.355-84.1336 25.1324-84.1336L77.7049-84.1336C84.4818-84.1336 88.0256-80.6509 88.0256-73.8752L88.0256-48.9113L90.3763-48.9113L90.3763-73.9999C90.3763-82.1782 86.071-86.5458 77.8316-86.5458L25.0052-86.5458C16.8277-86.5458 12.4609-82.1782 12.4609-73.9999L12.4609 3.7261C12.4609 11.9048 16.8277 16.2721 25.0052 16.2721ZM50.5249-34.055L107.91-34.055L114.582-34.1194L108.003-27.6654L97.9901-17.5939C97.7363-17.3413 97.5481-16.9624 97.5481-16.6454C97.5481-16.1348 98.0541-15.5661 98.6881-15.5661C99.0055-15.5661 99.1975-15.6932 99.4505-15.9462L117.996-34.4343C118.251-34.6894 118.377-34.9437 118.377-35.2606C118.377-35.5776 118.251-35.8319 117.996-36.087L99.4505-54.637C99.1975-54.8904 99.0055-55.0171 98.6881-55.0171C98.0541-55.0171 97.5481-54.5107 97.5481-53.9382C97.5481-53.6212 97.7363-53.2419 97.9901-52.9893L108.003-42.9178L114.644-36.4019L107.91-36.4663L50.5249-36.4663C49.8905-36.4663 49.32-35.8955 49.32-35.2606C49.32-34.6258 49.8905-34.055 50.5249-34.055Z"/>
  </g>
  <g id="Black-S" transform="matrix(1 0 0 1 2873.76 696)">
   <path d="M25 8.1543L66.4062 8.1543C75.9766 8.1543 81.6406 2.49023 81.6406-7.08008L81.6406-21.7285L67.4805-21.7285L67.4805-9.32617C67.4805-7.08008 66.6016-6.00586 64.1602-6.00586L27.2461-6.00586C24.8047-6.00586 23.9258-7.08008 23.9258-9.32617L23.9258-61.084C23.9258-63.3301 24.8047-64.4043 27.2461-64.4043L64.1602-64.4043C66.6016-64.4043 67.4805-63.3301 67.4805-61.084L67.4805-48.3887L81.6406-48.3887L81.6406-63.3301C81.6406-72.9004 75.9766-78.5645 66.4062-78.5645L25-78.5645C15.4297-78.5645 9.76562-72.9004 9.76562-63.3301L9.76562-7.08008C9.76562 2.49023 15.4297 8.1543 25 8.1543ZM55.1758-29.248L90.1367-29.248L95.6055-29.7852L92.2852-28.418L88.8184-25.1465C87.793-24.1699 87.1582-22.8516 87.1582-21.3379C87.1582-18.8477 89.1113-16.3086 91.9922-16.3086C93.457-16.3086 94.4824-16.8457 95.459-17.8223L107.373-30.2734C108.936-31.8848 109.521-33.5938 109.521-35.2539C109.521-36.9141 108.936-38.623 107.373-40.2344L95.459-52.6855C94.4824-53.6621 93.457-54.1992 91.9922-54.1992C89.1113-54.1992 87.1582-51.6602 87.1582-49.1699C87.1582-47.6562 87.793-46.3379 88.8184-45.3613L92.2852-42.0898L95.6055-40.7227L90.1367-41.2598L55.1758-41.2598C52.002-41.2598 49.2188-38.6719 49.2188-35.2539C49.2188-31.8359 52.002-29.248 55.1758-29.248Z"/>
  </g>
  <g id="Heavy-S" transform="matrix(1 0 0 1 2578.2 696)">
   <path d="M24.297 7.62417L65.4843 7.62417C74.7319 7.62417 80.0272 2.32889 80.0272-6.95331L80.0272-22.2356L67.5381-22.2356L67.5381-8.69233C67.5381-6.1466 66.4172-4.85341 63.6877-4.85341L26.1052-4.85341C23.3641-4.85341 22.2432-6.1466 22.2432-8.69233L22.2432-61.7409C22.2432-64.2866 23.3641-65.5798 26.1052-65.5798L63.6877-65.5798C66.4172-65.5798 67.5381-64.2866 67.5381-61.7409L67.5381-47.9738L80.0272-47.9738L80.0272-63.4799C80.0272-72.7506 74.7319-78.0574 65.4843-78.0574L24.297-78.0574C15.0494-78.0574 9.76562-72.7506 9.76562-63.4799L9.76562-6.95331C9.76562 2.32889 15.0494 7.62417 24.297 7.62417ZM53.0783-29.8473L88.7884-29.8473L94.3378-30.3268L91.2825-28.7868L87.2626-25.0197C86.3063-24.1353 85.7522-22.9207 85.7522-21.5569C85.7522-19.228 87.544-16.9655 90.1598-16.9655C91.4979-16.9655 92.4541-17.468 93.35-18.3639L105.299-30.8497C106.7-32.2881 107.217-33.7781 107.217-35.2539C107.217-36.7297 106.7-38.2197 105.299-39.6582L93.35-52.1439C92.4541-53.0513 91.4979-53.5423 90.1598-53.5423C87.544-53.5423 85.7522-51.2914 85.7522-48.9625C85.7522-47.5986 86.3063-46.3725 87.2626-45.4881L91.2825-41.7211L94.3493-40.181L88.7884-40.6605L53.0783-40.6605C50.2272-40.6605 47.7321-38.3031 47.7321-35.2539C47.7321-32.2047 50.2272-29.8473 53.0783-29.8473Z"/>
  </g>
  <g id="Bold-S" transform="matrix(1 0 0 1 2282.78 696)">
   <path d="M23.5107 7.03125L64.4531 7.03125C73.3398 7.03125 78.2227 2.14844 78.2227-6.81152L78.2227-22.8027L67.6025-22.8027L67.6025-7.9834C67.6025-5.10254 66.2109-3.56445 63.1592-3.56445L24.8291-3.56445C21.7529-3.56445 20.3613-5.10254 20.3613-7.9834L20.3613-62.4756C20.3613-65.3564 21.7529-66.8945 24.8291-66.8945L63.1592-66.8945C66.2109-66.8945 67.6025-65.3564 67.6025-62.4756L67.6025-47.5098L78.2227-47.5098L78.2227-63.6475C78.2227-72.583 73.3398-77.4902 64.4531-77.4902L23.5107-77.4902C14.624-77.4902 9.76562-72.583 9.76562-63.6475L9.76562-6.81152C9.76562 2.14844 14.624 7.03125 23.5107 7.03125ZM50.7324-30.5176L87.2803-30.5176L92.9199-30.9326L90.1611-29.1992L85.5225-24.8779C84.6436-24.0967 84.1797-22.998 84.1797-21.8018C84.1797-19.6533 85.791-17.7002 88.1104-17.7002C89.3066-17.7002 90.1855-18.1641 90.9912-18.9697L102.979-31.4941C104.199-32.7393 104.639-33.9844 104.639-35.2539C104.639-36.5234 104.199-37.7686 102.979-39.0137L90.9912-51.5381C90.1855-52.3682 89.3066-52.8076 88.1104-52.8076C85.791-52.8076 84.1797-50.8789 84.1797-48.7305C84.1797-47.5342 84.6436-46.4111 85.5225-45.6299L90.1611-41.3086L92.9443-39.5752L87.2803-39.9902L50.7324-39.9902C48.2422-39.9902 46.0693-37.8906 46.0693-35.2539C46.0693-32.6172 48.2422-30.5176 50.7324-30.5176Z"/>
  </g>
  <g id="Semibold-S" transform="matrix(1 0 0 1 1986.95 696)">
   <path d="M22.9687 6.62246L63.7422 6.62246C72.3801 6.62246 76.9785 2.02402 76.9785-6.71377L76.9785-23.1938L67.647-23.1938L67.647-7.49463C67.647-4.38271 66.0687-2.67578 62.7948-2.67578L23.9493-2.67578C20.6421-2.67578 19.0639-4.38271 19.0639-7.49463L19.0639-62.9821C19.0639-66.094 20.6421-67.801 23.9493-67.801L62.7948-67.801C66.0687-67.801 67.647-66.094 67.647-62.9821L67.647-47.1898L76.9785-47.1898L76.9785-63.763C76.9785-72.4675 72.3801-77.0992 63.7422-77.0992L22.9687-77.0992C14.3308-77.0992 9.76562-72.4675 9.76562-63.763L9.76562-6.71377C9.76562 2.02402 14.3308 6.62246 22.9687 6.62246ZM49.115-30.9797L86.2405-30.9797L91.9424-31.3503L89.388-29.4836L84.3228-24.7802C83.4972-24.07 83.0955-23.0514 83.0955-21.9706C83.0955-19.9466 84.5824-18.2067 86.6974-18.2067C87.7959-18.2067 88.6215-18.6439 89.3649-19.3874L101.379-31.9385C102.475-33.0503 102.861-34.1266 102.861-35.2539C102.861-36.3813 102.475-37.4575 101.379-38.5693L89.3649-51.1204C88.6215-51.8972 87.7959-52.3011 86.6974-52.3011C84.5824-52.3011 83.0955-50.5945 83.0955-48.5705C83.0955-47.4897 83.4972-46.4378 84.3228-45.7276L89.388-41.0242L91.9757-39.1575L86.2405-39.5281L49.115-39.5281C46.8736-39.5281 44.9229-37.6063 44.9229-35.2539C44.9229-32.9016 46.8736-30.9797 49.115-30.9797Z"/>
  </g>
  <g id="Medium-S" transform="matrix(1 0 0 1 1690.92 696)">
   <path d="M22.5576 6.3125L63.2031 6.3125C71.6523 6.3125 76.0352 1.92969 76.0352-6.63965L76.0352-23.4902L67.6807-23.4902L67.6807-7.12402C67.6807-3.83691 65.9609-2.00195 62.5186-2.00195L23.2822-2.00195C19.7998-2.00195 18.0801-3.83691 18.0801-7.12402L18.0801-63.3662C18.0801-66.6533 19.7998-68.4883 23.2822-68.4883L62.5186-68.4883C65.9609-68.4883 67.6807-66.6533 67.6807-63.3662L67.6807-46.9473L76.0352-46.9473L76.0352-63.8506C76.0352-72.3799 71.6523-76.8027 63.2031-76.8027L22.5576-76.8027C14.1084-76.8027 9.76562-72.3799 9.76562-63.8506L9.76562-6.63965C9.76562 1.92969 14.1084 6.3125 22.5576 6.3125ZM47.8887-31.3301L85.4521-31.3301L91.2012-31.667L88.8018-29.6992L83.4131-24.7061C82.6279-24.0498 82.2734-23.0918 82.2734-22.0986C82.2734-20.1689 83.666-18.5908 85.626-18.5908C86.6504-18.5908 87.4355-19.0078 88.1318-19.7041L100.166-32.2754C101.168-33.2861 101.514-34.2344 101.514-35.2539C101.514-36.2734 101.168-37.2217 100.166-38.2324L88.1318-50.8037C87.4355-51.54 86.6504-51.917 85.626-51.917C83.666-51.917 82.2734-50.3789 82.2734-48.4492C82.2734-47.4561 82.6279-46.458 83.4131-45.8018L88.8018-40.8086L91.2412-38.8408L85.4521-39.1777L47.8887-39.1777C45.8359-39.1777 44.0537-37.3906 44.0537-35.2539C44.0537-33.1172 45.8359-31.3301 47.8887-31.3301Z"/>
  </g>
  <g id="Regular-S" transform="matrix(1 0 0 1 1395.08 696)">
   <path d="M22.0215 5.9082L62.5 5.9082C70.7031 5.9082 74.8047 1.80664 74.8047-6.54297L74.8047-23.877L67.7246-23.877L67.7246-6.64062C67.7246-3.125 65.8203-1.12305 62.1582-1.12305L22.4121-1.12305C18.7012-1.12305 16.7969-3.125 16.7969-6.64062L16.7969-63.8672C16.7969-67.3828 18.7012-69.3848 22.4121-69.3848L62.1582-69.3848C65.8203-69.3848 67.7246-67.3828 67.7246-63.8672L67.7246-46.6309L74.8047-46.6309L74.8047-63.9648C74.8047-72.2656 70.7031-76.416 62.5-76.416L22.0215-76.416C13.8184-76.416 9.76562-72.2656 9.76562-63.9648L9.76562-6.54297C9.76562 1.80664 13.8184 5.9082 22.0215 5.9082ZM46.2891-31.7871L84.4238-31.7871L90.2344-32.0801L88.0371-29.9805L82.2266-24.6094C81.4941-24.0234 81.2012-23.1445 81.2012-22.2656C81.2012-20.459 82.4707-19.0918 84.2285-19.0918C85.1562-19.0918 85.8887-19.4824 86.5234-20.1172L98.584-32.7148C99.4629-33.5938 99.7559-34.375 99.7559-35.2539C99.7559-36.1328 99.4629-36.9141 98.584-37.793L86.5234-50.3906C85.8887-51.0742 85.1562-51.416 84.2285-51.416C82.4707-51.416 81.2012-50.0977 81.2012-48.291C81.2012-47.4121 81.4941-46.4844 82.2266-45.8984L88.0371-40.5273L90.2832-38.4277L84.4238-38.7207L46.2891-38.7207C44.4824-38.7207 42.9199-37.1094 42.9199-35.2539C42.9199-33.3984 44.4824-31.7871 46.2891-31.7871Z"/>
  </g>
  <g id="Light-S" transform="matrix(1 0 0 1 1099.46 696)">
   <path d="M21.2647 5.66602L62.0308 5.66602C69.689 5.66602 73.5635 1.77637 73.5635-5.96778L73.5635-24.0586L68.1182-24.0586L68.1182-6.06543C68.1182-1.98976 65.9414 0.239247 61.7647 0.239247L21.5645 0.239247C17.354 0.239247 15.1924-1.98976 15.1924-6.06543L15.1924-64.3818C15.1924-68.4575 17.354-70.6865 21.5645-70.6865L61.7647-70.6865C65.9414-70.6865 68.1182-68.4575 68.1182-64.3818L68.1182-46.4189L73.5635-46.4189L73.5635-64.4795C73.5635-72.1899 69.689-76.1133 62.0308-76.1133L21.2647-76.1133C13.6216-76.1133 9.76562-72.1899 9.76562-64.4795L9.76562-5.96778C9.76562 1.77637 13.6216 5.66602 21.2647 5.66602ZM44.2002-32.5742L84.4692-32.5742L90.0981-32.7915L86.9775-29.7686L80.5313-23.6104C79.9653-23.1455 79.7178-22.4482 79.7178-21.7661C79.7178-20.3984 80.7149-19.3188 82.0791-19.3188C82.7949-19.3188 83.3457-19.6187 83.8443-20.1172L96.6768-33.3052C97.3438-33.9722 97.5762-34.5718 97.5762-35.2539C97.5762-35.936 97.3438-36.5356 96.6768-37.2026L83.8443-50.4058C83.3457-50.938 82.7949-51.2041 82.0791-51.2041C80.7149-51.2041 79.7178-50.1733 79.7178-48.7905C79.7178-48.1084 79.9653-47.3774 80.5313-46.9126L86.9775-40.7544L90.147-37.7163L84.4692-37.9336L44.2002-37.9336C42.8023-37.9336 41.5879-36.6856 41.5879-35.2539C41.5879-33.8223 42.8023-32.5742 44.2002-32.5742Z"/>
  </g>
  <g id="Thin-S" transform="matrix(1 0 0 1 804.194 696)">
   <path d="M20.2637 5.34571L61.4102 5.34571C68.3477 5.34571 71.9219 1.73633 71.9219-5.20704L71.9219-24.2988L68.6387-24.2988L68.6387-5.3047C68.6387-0.488302 66.1016 2.04099 61.2441 2.04099L20.4434 2.04099C15.5723 2.04099 13.0703-0.488302 13.0703-5.3047L13.0703-65.0625C13.0703-69.8789 15.5723-72.4082 20.4434-72.4082L61.2441-72.4082C66.1016-72.4082 68.6387-69.8789 68.6387-65.0625L68.6387-46.1387L71.9219-46.1387L71.9219-65.1601C71.9219-72.0898 68.3477-75.7129 61.4102-75.7129L20.2637-75.7129C13.3613-75.7129 9.76562-72.0898 9.76562-65.1601L9.76562-5.20704C9.76562 1.73633 13.3613 5.34571 20.2637 5.34571ZM41.4375-33.6152L84.5293-33.6152L89.918-33.7324L85.5762-29.4883L78.2891-22.2891C77.9434-21.9844 77.7559-21.5274 77.7559-21.1055C77.7559-20.3184 78.3926-19.6191 79.2364-19.6191C79.6719-19.6191 79.9825-19.7988 80.3008-20.1172L94.1543-34.0859C94.5411-34.4726 94.6934-34.832 94.6934-35.2539C94.6934-35.6758 94.5411-36.0352 94.1543-36.4219L80.3008-50.4258C79.9825-50.7578 79.6719-50.9238 79.2364-50.9238C78.3926-50.9238 77.7559-50.2734 77.7559-49.4512C77.7559-49.0293 77.9434-48.5586 78.2891-48.2539L85.5762-41.0547L89.9668-36.7754L84.5293-36.8926L41.4375-36.8926C40.5801-36.8926 39.8262-36.125 39.8262-35.2539C39.8262-34.3828 40.5801-33.6152 41.4375-33.6152Z"/>
  </g>
  <g id="Ultralight-S" transform="matrix(1 0 0 1 508.222 696)">
   <path d="M19.751 5.18165L61.0923 5.18165C67.6607 5.18165 71.0811 1.71582 71.0811-4.8174L71.0811-24.4219L68.9053-24.4219L68.9053-4.91505C68.9053 0.280735 66.1836 2.96384 60.9775 2.96384L19.8692 2.96384C14.6597 2.96384 11.9834 0.280735 11.9834-4.91505L11.9834-65.4111C11.9834-70.6069 14.6597-73.29 19.8692-73.29L60.9775-73.29C66.1836-73.29 68.9053-70.6069 68.9053-65.4111L68.9053-45.9951L71.0811-45.9951L71.0811-65.5088C71.0811-72.0386 67.6607-75.5078 61.0923-75.5078L19.751-75.5078C13.228-75.5078 9.76562-72.0386 9.76562-65.5088L9.76562-4.8174C9.76562 1.71582 13.228 5.18165 19.751 5.18165ZM40.0225-34.1484L84.5601-34.1484L89.8257-34.2143L84.8584-29.3447L77.1407-21.6123C76.9078-21.3897 76.751-21.0557 76.751-20.7671C76.751-20.2773 77.2032-19.7729 77.7803-19.7729C78.0723-19.7729 78.2598-19.8911 78.4859-20.1172L92.8623-34.4858C93.1055-34.729 93.2168-34.9653 93.2168-35.2539C93.2168-35.5425 93.1055-35.7788 92.8623-36.022L78.4859-50.436C78.2598-50.6655 78.0723-50.7803 77.7803-50.7803C77.2032-50.7803 76.751-50.3247 76.751-49.7895C76.751-49.501 76.9078-49.1636 77.1407-48.9409L84.8584-41.2085L89.8745-36.2935L84.5601-36.3594L40.0225-36.3594C39.4419-36.3594 38.9239-35.8379 38.9239-35.2539C38.9239-34.6699 39.4419-34.1484 40.0225-34.1484Z"/>
  </g>
 </g>
</svg>
